<!DOCTYPE svg PUBLIC "-//W3C//DTD SVG 20010904//EN" "http://www.w3.org/TR/2001/REC-SVG-20010904/DTD/svg10.dtd">
<svg version="1.0" xmlns="http://www.w3.org/2000/svg" width="376px" height="287px" viewBox="0 0 3760 2870" preserveAspectRatio="xMidYMid meet">
<g id="layer101" fill="#060606" stroke="none">
<path d="M235 2626 c-55 -14 -117 -50 -154 -90 l-24 -26 195 0 196 0 10 29 c11 31 47 50 64 33 6 -6 6 -17 -1 -30 -15 -28 -14 -32 10 -32 13 0 23 10 30 30 19 53 75 52 64 -1 l-7 -29 1523 0 1523 0 -33 34 c-18 19 -61 47 -95 63 l-61 28 -1595 2 c-1237 1 -1606 -1 -1645 -11z"/>
<path d="M46 2455 c4 -8 9 -15 13 -15 4 0 54 -53 110 -117 109 -124 142 -162 257 -289 39 -44 103 -116 142 -161 l72 -82 0 -798 c0 -608 3 -802 12 -811 17 -17 2409 -17 2426 0 9 9 12 202 12 806 l0 794 29 33 c16 19 33 31 37 27 4 -4 4 -2 1 4 -8 14 36 57 48 47 4 -5 5 -2 1 5 -11 18 31 62 53 55 12 -4 13 -3 3 5 -15 10 -22 2 153 202 55 63 138 159 183 213 l83 97 -1820 0 c-1614 0 -1820 -2 -1815 -15z m2512 -90 l-4 -35 423 0 c233 0 423 -2 423 -5 0 -3 -46 -64 -102 -135 -57 -72 -134 -170 -171 -220 l-68 -90 -1192 0 -1192 1 -57 72 c-31 40 -110 140 -176 222 l-120 150 424 3 c251 1 424 6 424 11 0 6 -4 21 -10 35 l-10 26 706 0 706 0 -4 -35z m452 -530 c-11 -13 -149 -15 -1135 -15 -618 0 -1130 3 -1139 6 -9 3 -16 10 -16 15 0 5 482 9 1151 9 1022 0 1150 -2 1139 -15z m-10 -845 l0 -700 -1135 0 -1135 0 0 700 0 700 1135 0 1135 0 0 -700z"/>
<path d="M1231 2373 c0 -5 8 -30 17 -58 l17 -50 599 0 600 0 6 25 c4 14 10 40 13 58 l7 32 -630 0 c-347 0 -630 -3 -629 -7z"/>
<path d="M433 2303 c-19 -4 -21 -8 -13 -24 9 -15 22 -19 70 -19 64 0 66 1 50 31 -11 19 -49 23 -107 12z"/>
<path d="M600 2302 c0 -2 5 -12 10 -23 9 -16 22 -19 85 -19 73 0 88 7 63 28 -12 9 -158 22 -158 14z"/>
<path d="M820 2304 c0 -3 5 -14 10 -25 9 -16 22 -19 81 -19 62 0 70 2 67 17 -2 10 -16 21 -33 24 -39 9 -125 11 -125 3z"/>
<path d="M1044 2294 c3 -9 6 -20 6 -25 0 -5 32 -9 70 -9 69 0 76 3 64 34 -5 13 -22 16 -76 16 -60 0 -69 -2 -64 -16z"/>
<path d="M2550 2302 c0 -6 -3 -18 -6 -27 -6 -14 3 -16 67 -13 66 3 74 5 74 23 0 18 -8 20 -67 23 -41 2 -68 0 -68 -6z"/>
<path d="M2760 2291 c-5 -11 -10 -22 -10 -25 0 -3 31 -6 70 -6 58 0 71 3 80 19 5 11 10 22 10 25 0 3 -31 6 -70 6 -58 0 -71 -3 -80 -19z"/>
<path d="M2976 2294 c-12 -31 -5 -34 63 -34 54 0 70 4 75 16 12 31 5 34 -63 34 -54 0 -70 -4 -75 -16z"/>
<path d="M3185 2288 l-15 -23 61 -3 c49 -2 64 0 74 15 12 16 11 19 -8 25 -50 14 -95 9 -112 -14z"/>
<path d="M467 2234 c-3 -4 -2 -15 4 -25 8 -15 21 -19 71 -19 60 0 60 0 46 23 -12 17 -27 23 -65 25 -27 2 -52 0 -56 -4z"/>
<path d="M650 2234 c0 -3 5 -14 10 -25 9 -16 22 -19 80 -19 l70 0 -12 25 c-10 23 -16 25 -80 25 -37 0 -68 -3 -68 -6z"/>
<path d="M860 2231 c0 -35 13 -41 87 -41 l75 0 -14 23 c-13 18 -26 22 -82 25 -38 2 -66 -1 -66 -7z"/>
<path d="M1070 2231 c0 -35 13 -41 82 -41 66 0 69 1 66 23 -3 20 -9 22 -75 25 -42 2 -73 -1 -73 -7z"/>
<path d="M1713 2234 c-7 -3 -13 -14 -13 -25 0 -17 8 -19 70 -19 63 0 70 2 70 20 0 16 -7 20 -37 20 -21 0 -47 2 -58 5 -11 2 -26 2 -32 -1z"/>
<path d="M2178 2233 c-60 -3 -68 -6 -68 -23 0 -18 7 -20 70 -20 68 0 70 1 70 25 0 14 -1 24 -2 23 -2 -1 -33 -3 -70 -5z"/>
<path d="M2530 2231 c0 -5 -3 -16 -6 -25 -5 -14 4 -16 65 -16 39 0 71 4 71 9 0 5 3 16 6 25 5 14 -4 16 -65 16 -39 0 -71 -4 -71 -9z"/>
<path d="M2732 2220 c-6 -11 -12 -22 -12 -25 0 -3 31 -5 70 -5 58 0 71 3 80 19 5 11 10 22 10 25 0 3 -30 6 -68 6 -56 0 -69 -3 -80 -20z"/>
<path d="M2946 2224 c-28 -27 -18 -34 53 -34 68 0 81 7 81 41 0 16 -117 11 -134 -7z"/>
<path d="M3142 2215 l-12 -25 60 0 c48 0 61 4 70 19 16 30 14 31 -48 31 -53 0 -60 -2 -70 -25z"/>
<path d="M1287 2210 c5 -18 14 -20 74 -20 62 0 69 2 69 20 0 18 -7 20 -74 20 -69 0 -74 -1 -69 -20z"/>
<path d="M1500 2210 c0 -18 7 -20 70 -20 63 0 70 2 70 20 0 18 -7 20 -70 20 -63 0 -70 -2 -70 -20z"/>
<path d="M1910 2210 c0 -18 7 -20 70 -20 63 0 70 2 70 20 0 18 -7 20 -70 20 -63 0 -70 -2 -70 -20z"/>
<path d="M2320 2210 c0 -19 5 -21 67 -18 55 2 68 6 71 21 3 15 -5 17 -67 17 -65 0 -71 -2 -71 -20z"/>
<path d="M510 2163 c0 -5 8 -17 18 -28 14 -17 25 -19 70 -15 l53 5 -21 23 c-16 17 -32 22 -70 22 -28 0 -50 -3 -50 -7z"/>
<path d="M696 2161 c-3 -4 0 -15 7 -24 16 -22 144 -27 139 -6 -8 30 -26 39 -83 39 -32 0 -60 -4 -63 -9z"/>
<path d="M947 2163 c-39 -3 -48 -7 -45 -21 3 -14 18 -18 76 -22 39 -3 72 -4 72 -3 0 20 -23 53 -37 51 -10 -1 -40 -3 -66 -5z"/>
<path d="M1100 2158 c0 -29 18 -37 78 -39 34 -1 65 1 68 4 3 3 1 15 -6 26 -9 18 -20 21 -75 21 -45 0 -65 -4 -65 -12z"/>
<path d="M1300 2164 c0 -3 5 -14 10 -25 9 -16 22 -19 75 -19 64 0 71 4 59 34 -5 12 -21 16 -75 16 -38 0 -69 -3 -69 -6z"/>
<path d="M1773 2163 c-55 -3 -63 -7 -63 -23 0 -18 7 -20 65 -20 63 0 65 1 65 25 0 14 -1 24 -2 23 -2 -1 -31 -3 -65 -5z"/>
<path d="M2108 2146 c-3 -14 -4 -27 -2 -28 1 -2 32 -1 68 0 57 3 66 6 66 23 0 14 -7 19 -27 19 -16 0 -44 3 -64 6 -33 6 -37 4 -41 -20z"/>
<path d="M2310 2161 c0 -5 -3 -16 -6 -25 -5 -14 4 -16 59 -16 50 0 66 4 71 16 12 30 5 34 -59 34 -36 0 -65 -4 -65 -9z"/>
<path d="M2507 2163 c-4 -3 -7 -16 -7 -27 0 -19 5 -21 64 -18 63 4 86 18 70 43 -6 10 -117 12 -127 2z"/>
<path d="M2714 2162 c-6 -4 -14 -16 -18 -27 -5 -19 -2 -20 59 -17 51 3 67 8 75 22 7 13 6 20 -6 24 -22 8 -97 7 -110 -2z"/>
<path d="M2912 2155 c-40 -28 -27 -40 40 -38 46 2 66 7 75 20 20 27 16 30 -40 32 -34 1 -60 -4 -75 -14z"/>
<path d="M3144 2163 c-34 -4 -79 -42 -53 -44 81 -5 140 15 123 42 -5 9 -12 9 -70 2z"/>
<path d="M1512 2143 c3 -15 16 -19 71 -21 62 -3 67 -1 67 18 0 18 -6 20 -71 20 -62 0 -70 -2 -67 -17z"/>
<path d="M1910 2140 c0 -18 7 -20 65 -20 58 0 65 2 65 20 0 18 -7 20 -65 20 -58 0 -65 -2 -65 -20z"/>
<path d="M560 2090 c0 -3 10 -16 23 -28 16 -15 33 -20 64 -19 51 2 58 9 35 30 -17 16 -122 31 -122 17z"/>
<path d="M778 2092 c-42 -4 -47 -11 -20 -35 14 -12 30 -15 74 -10 51 5 55 7 45 23 -12 20 -42 27 -99 22z"/>
<path d="M1130 2087 c0 -5 4 -16 9 -26 8 -13 22 -16 73 -14 35 1 64 2 65 2 1 1 -1 11 -6 23 -7 19 -15 22 -74 22 -37 1 -67 -3 -67 -7z"/>
<path d="M1330 2080 c0 -31 15 -38 72 -37 62 2 71 7 62 30 -8 22 -134 29 -134 7z"/>
<path d="M1720 2070 c0 -24 4 -25 60 -28 58 -3 60 -2 60 22 0 23 -4 24 -60 28 -58 3 -60 2 -60 -22z"/>
<path d="M1968 2092 c-50 -3 -58 -6 -58 -22 0 -18 7 -20 59 -20 46 0 60 4 65 17 10 24 -2 28 -66 25z"/>
<path d="M2163 2092 c-58 -3 -63 -5 -63 -26 0 -21 5 -23 55 -25 46 -1 56 2 65 19 6 12 10 24 8 28 -2 4 -31 6 -65 4z"/>
<path d="M2698 2091 c-14 -3 -38 -30 -38 -41 0 -3 27 -5 61 -5 56 2 78 12 79 36 0 8 -83 16 -102 10z"/>
<path d="M2920 2092 c-51 -3 -69 -13 -70 -38 0 -16 120 -11 131 7 20 31 12 35 -61 31z"/>
<path d="M3095 2092 c-38 -3 -55 -15 -55 -37 0 -6 23 -9 50 -9 37 1 55 6 65 20 19 25 18 33 -2 31 -10 -1 -36 -3 -58 -5z"/>
<path d="M940 2076 c0 -22 14 -27 80 -31 60 -4 65 -1 54 29 -8 22 -134 23 -134 2z"/>
<path d="M1527 2070 c3 -11 13 -21 22 -21 115 -9 111 -10 111 16 0 24 -2 25 -69 25 -64 0 -69 -1 -64 -20z"/>
<path d="M2287 2071 c-3 -15 2 -20 25 -25 56 -11 87 -7 98 13 16 30 14 31 -54 31 -54 0 -64 -3 -69 -19z"/>
<path d="M2476 2074 c-10 -27 2 -33 60 -32 41 1 58 6 65 19 14 28 12 29 -55 29 -49 0 -65 -4 -70 -16z"/>
<path d="M632 1998 c12 -18 26 -24 67 -26 53 -3 59 2 37 31 -10 12 -27 17 -66 17 -52 0 -52 0 -38 -22z"/>
<path d="M790 2013 c0 -5 7 -16 14 -25 10 -14 28 -18 70 -18 56 0 62 4 50 34 -5 12 -21 16 -70 16 -35 0 -64 -3 -64 -7z"/>
<path d="M980 2014 c0 -3 5 -14 10 -25 9 -15 22 -19 70 -19 64 0 66 1 50 31 -9 15 -22 19 -70 19 -33 0 -60 -3 -60 -6z"/>
<path d="M1172 1995 c10 -23 17 -25 70 -25 58 0 64 4 52 34 -5 12 -21 16 -70 16 l-64 0 12 -25z"/>
<path d="M1350 2014 c0 -3 5 -14 10 -25 9 -16 22 -19 71 -19 52 0 60 2 55 16 -3 9 -6 20 -6 25 0 5 -29 9 -65 9 -36 0 -65 -3 -65 -6z"/>
<path d="M1540 2011 c0 -32 14 -41 64 -41 60 0 66 3 59 31 -5 16 -14 19 -64 19 -33 0 -59 -4 -59 -9z"/>
<path d="M1724 2004 c3 -9 6 -20 6 -25 0 -6 25 -9 58 -7 50 3 57 6 60 26 3 21 0 22 -63 22 -57 0 -66 -2 -61 -16z"/>
<path d="M1910 1995 c0 -25 2 -26 58 -23 50 3 57 6 60 26 3 21 0 22 -57 22 -59 0 -61 -1 -61 -25z"/>
<path d="M2087 1999 c-7 -26 7 -31 69 -27 42 3 49 6 52 26 3 21 0 22 -56 22 -52 0 -60 -3 -65 -21z"/>
<path d="M2270 1995 c0 -25 2 -26 56 -23 48 3 58 6 65 26 8 21 7 22 -56 22 -63 0 -65 -1 -65 -25z"/>
<path d="M2457 2013 c-4 -3 -7 -15 -7 -25 0 -15 8 -18 55 -18 43 0 56 4 65 19 5 11 10 22 10 25 0 8 -115 7 -123 -1z"/>
<path d="M2636 2004 c-11 -30 -6 -34 49 -34 43 0 56 4 65 19 16 30 14 31 -49 31 -44 0 -60 -4 -65 -16z"/>
<path d="M2816 2004 c-12 -31 -6 -35 50 -32 46 2 60 7 72 26 l14 22 -65 0 c-50 0 -66 -4 -71 -16z"/>
<path d="M2995 1998 c-15 -23 -15 -23 31 -26 33 -2 52 2 65 14 30 27 23 34 -30 34 -40 0 -53 -4 -66 -22z"/>
<path d="M680 1942 c0 -21 39 -42 78 -42 43 0 54 14 30 38 -14 14 -108 17 -108 4z"/>
<path d="M840 1942 c0 -23 39 -42 88 -42 55 0 60 4 38 33 -10 13 -28 17 -70 17 -31 0 -56 -4 -56 -8z"/>
<path d="M1026 1925 c14 -21 24 -25 68 -25 61 0 69 5 53 31 -10 15 -24 19 -75 19 l-62 0 16 -25z"/>
<path d="M1200 1941 c0 -24 34 -41 81 -41 49 0 54 4 43 34 -5 12 -21 16 -65 16 -32 0 -59 -4 -59 -9z"/>
<path d="M1382 1925 c10 -22 17 -25 63 -25 59 0 65 3 58 31 -5 16 -14 19 -69 19 l-64 0 12 -25z"/>
<path d="M1559 1928 c7 -20 17 -23 65 -26 56 -3 62 1 50 32 -5 12 -21 16 -65 16 -56 0 -58 -1 -50 -22z"/>
<path d="M1732 1928 c3 -20 10 -23 61 -26 55 -3 57 -2 57 23 0 24 -2 25 -61 25 -57 0 -60 -1 -57 -22z"/>
<path d="M1910 1925 c0 -24 3 -25 55 -25 52 0 55 1 55 25 0 24 -3 25 -55 25 -52 0 -55 -1 -55 -25z"/>
<path d="M2080 1925 c0 -24 3 -25 55 -25 30 0 55 4 55 9 0 5 3 16 6 25 5 14 -3 16 -55 16 -58 0 -61 -1 -61 -25z"/>
<path d="M2251 1931 c-14 -26 -5 -31 55 -31 38 0 53 4 58 16 11 30 6 34 -49 34 -43 0 -56 -4 -64 -19z"/>
<path d="M2426 1934 c-11 -29 -6 -32 50 -31 49 2 58 5 65 25 8 21 6 22 -50 22 -44 0 -60 -4 -65 -16z"/>
<path d="M2602 1938 c-26 -26 -13 -38 43 -38 43 0 56 4 65 19 5 11 10 22 10 25 0 11 -106 6 -118 -6z"/>
<path d="M2771 1931 c-14 -25 -5 -31 50 -31 39 0 49 4 63 25 l16 25 -59 0 c-49 0 -62 -4 -70 -19z"/>
<path d="M2947 1932 c-10 -10 -17 -21 -17 -25 0 -7 98 -3 103 4 1 2 9 12 16 22 12 16 10 17 -36 17 -36 0 -55 -5 -66 -18z"/>
</g>
<g id="layer102" fill="#1c7118" stroke="none">
<path d="M1200 1571 c-15 -30 -12 -68 8 -83 11 -8 17 -27 18 -52 0 -24 7 -43 17 -51 10 -7 17 -26 17 -47 0 -20 7 -41 15 -48 8 -7 15 -27 15 -45 0 -19 8 -39 19 -49 15 -13 18 -26 14 -56 -5 -32 -2 -39 16 -45 16 -5 21 -15 21 -40 0 -31 21 -65 39 -65 5 0 6 -11 3 -25 -5 -27 21 -65 43 -65 7 0 10 -11 7 -30 -4 -25 1 -32 27 -47 20 -12 31 -26 31 -40 0 -13 11 -30 25 -39 14 -9 25 -25 25 -35 0 -10 9 -24 21 -31 11 -7 27 -28 36 -46 9 -18 26 -35 39 -38 13 -3 24 -10 24 -14 0 -5 29 -38 64 -75 l65 -66 44 6 c26 4 89 0 149 -8 149 -22 319 -30 368 -17 51 14 103 59 129 114 27 55 27 102 -2 143 -24 36 -37 42 -37 16 0 -15 -2 -14 -15 3 -13 17 -14 17 -15 2 0 -23 -20 -24 -20 -1 0 15 -2 14 -15 -3 -14 -19 -14 -19 -15 1 -1 19 -1 19 -14 2 -11 -14 -15 -15 -19 -5 -4 11 -7 10 -15 -1 -7 -10 -11 -10 -17 -1 -6 9 -10 9 -16 -1 -7 -12 -9 -12 -9 0 0 11 -3 11 -15 1 -12 -10 -15 -10 -15 0 0 10 -3 10 -15 0 -12 -10 -15 -10 -15 1 0 11 -2 11 -10 -1 -9 -13 -11 -13 -20 0 -5 8 -10 10 -10 5 0 -13 -135 -3 -210 15 -54 13 -67 31 -51 73 17 44 52 59 126 55 39 -2 67 0 69 7 3 6 9 4 15 -5 8 -12 11 -12 11 -1 0 11 3 11 15 1 12 -10 15 -10 15 1 0 11 2 11 10 -1 9 -13 11 -13 20 0 9 13 10 13 10 0 1 -11 4 -10 15 4 9 12 15 15 15 7 0 -11 3 -11 15 -1 12 10 15 10 15 -1 0 -11 2 -11 10 1 8 12 11 13 19 1 7 -11 9 -11 14 0 5 12 6 12 6 0 1 -11 4 -11 16 -1 12 10 15 10 15 -1 0 -9 3 -10 8 -4 10 14 42 15 42 1 0 -6 5 -4 10 4 5 8 10 11 10 6 0 -5 7 -3 15 4 20 17 20 99 -1 128 -19 27 -58 28 -229 7 -147 -18 -245 -19 -268 -2 -15 11 -17 29 -15 140 l3 128 35 -26 c51 -39 73 -45 114 -34 36 10 66 41 66 68 0 11 -3 11 -18 -2 -10 -10 -29 -17 -43 -16 -23 1 -23 1 4 11 15 5 27 13 27 18 0 5 3 16 7 26 6 16 3 15 -21 -4 -29 -22 -52 -27 -80 -16 -13 5 -14 9 -5 20 16 20 -1 17 -24 -3 -18 -17 -20 -17 -43 10 -29 34 -34 83 -6 72 9 -4 49 -19 89 -34 69 -25 72 -25 107 -9 45 22 69 58 58 87 l-8 23 -11 -25 c-6 -13 -21 -27 -32 -30 -27 -7 -27 4 -1 21 12 7 20 23 20 40 l0 27 -18 -21 c-31 -39 -101 -62 -88 -29 8 22 -12 18 -26 -5 -17 -27 -27 -25 -70 15 -35 33 -38 40 -38 90 l0 55 -360 0 c-345 0 -360 -1 -370 -19z m694 -1040 c3 -5 -1 -12 -10 -15 -9 -4 -14 -13 -10 -21 4 -10 -1 -15 -15 -15 -22 0 -34 22 -25 45 6 16 51 21 60 6z"/>
</g>
<g id="layer103" fill="#3f3f3f" stroke="none">
<path d="M1067 2633 c436 -2 1150 -2 1585 0 436 1 80 2 -792 2 -872 0 -1228 -1 -793 -2z"/>
<path d="M1503 2403 c197 -2 517 -2 710 0 194 1 33 2 -358 2 -390 0 -549 -1 -352 -2z"/>
<path d="M3519 2293 c-24 -27 -48 -47 -52 -45 -5 1 -6 -2 -2 -8 9 -15 8 -15 60 45 57 68 54 72 -6 8z"/>
<path d="M484 2303 c22 -3 46 -12 53 -21 12 -15 13 -14 3 6 -9 18 -18 22 -53 20 l-42 -1 39 -4z"/>
<path d="M2976 2294 c-5 -13 -3 -14 7 -6 7 6 42 13 77 15 l65 3 -71 2 c-59 2 -73 -1 -78 -14z"/>
<path d="M3189 2293 c-12 -16 -12 -17 1 -6 8 6 33 13 55 16 l40 4 -41 1 c-29 1 -46 -3 -55 -15z"/>
<path d="M209 2276 c27 -29 33 -32 25 -13 -2 7 -14 19 -27 26 -21 13 -21 12 2 -13z"/>
<path d="M380 2240 c11 -16 26 -33 32 -36 7 -4 -1 9 -16 29 -34 44 -46 50 -16 7z"/>
<path d="M467 2233 c-3 -5 17 -6 44 -5 31 3 56 -1 67 -10 15 -12 16 -11 3 5 -9 12 -28 17 -62 17 -26 0 -50 -3 -52 -7z"/>
<path d="M887 2233 c18 -2 50 -2 70 0 21 2 7 4 -32 4 -38 0 -55 -2 -38 -4z"/>
<path d="M1071 2223 c0 -11 3 -13 6 -5 6 15 129 17 136 2 3 -6 4 -5 3 2 -2 9 -26 14 -74 16 -64 3 -72 1 -71 -15z"/>
<path d="M2530 2233 c0 -5 32 -8 70 -8 39 0 70 3 70 8 0 4 -31 7 -70 7 -38 0 -70 -3 -70 -7z"/>
<path d="M2978 2233 c12 -2 32 -2 45 0 12 2 2 4 -23 4 -25 0 -35 -2 -22 -4z"/>
<path d="M3152 2235 c7 -8 108 -9 115 -1 3 3 -22 6 -57 6 -35 0 -61 -2 -58 -5z"/>
<path d="M3435 2192 c-5 -4 -19 -18 -30 -32 -16 -21 -14 -20 13 4 29 27 37 36 30 36 -2 0 -7 -4 -13 -8z"/>
<path d="M697 2163 c-3 -5 16 -7 41 -5 80 5 90 9 25 11 -34 0 -64 -2 -66 -6z"/>
<path d="M1010 2157 c27 -15 36 -14 25 2 -3 6 -16 11 -28 11 -21 0 -21 -1 3 -13z"/>
<path d="M1100 2153 c0 -12 3 -14 8 -6 4 6 34 14 67 16 l60 3 -67 2 c-59 2 -68 0 -68 -15z"/>
<path d="M1300 2162 c0 -8 131 -4 139 4 2 2 -28 4 -67 4 -40 0 -72 -4 -72 -8z"/>
<path d="M2503 2155 c-3 -9 -3 -19 1 -22 3 -4 6 1 6 10 0 14 11 17 61 17 58 0 60 -1 54 -22 -5 -20 -4 -21 5 -5 18 28 3 37 -61 37 -45 0 -61 -4 -66 -15z"/>
<path d="M362 2100 c7 -11 19 -22 28 -25 8 -4 4 5 -9 19 -29 31 -36 33 -19 6z"/>
<path d="M2360 2050 l-45 -7 42 -1 c23 -1 45 3 48 8 3 6 5 9 3 8 -2 0 -23 -4 -48 -8z"/>
<path d="M720 2014 c0 -6 5 -15 12 -22 17 -17 -73 -16 -92 1 -12 10 -12 9 -1 -5 10 -13 27 -18 62 -18 27 0 49 3 49 8 -1 11 -30 47 -30 36z"/>
<path d="M1841 2003 c-1 -20 -7 -22 -58 -26 l-58 -3 58 -2 c59 -2 76 9 64 40 -3 7 -6 3 -6 -9z"/>
<path d="M2020 1997 c0 -12 -13 -17 -57 -20 l-58 -3 58 -2 c44 -2 59 2 64 13 3 9 3 19 -1 22 -3 4 -6 -1 -6 -10z"/>
<path d="M2200 1991 c0 -9 -17 -12 -59 -9 -33 1 -57 0 -54 -4 7 -12 111 -9 118 3 4 6 4 13 1 16 -3 4 -6 1 -6 -6z"/>
<path d="M2925 1991 c-6 -6 -35 -12 -65 -14 l-55 -3 56 -2 c40 -1 60 2 69 13 14 16 10 21 -5 6z"/>
<path d="M1055 1980 l-60 -7 63 -1 c36 -1 62 2 62 8 0 6 -1 9 -2 8 -2 -1 -30 -4 -63 -8z"/>
<path d="M3224 1948 c-23 -26 -24 -28 -4 -12 14 12 31 20 38 18 7 -1 8 0 2 3 -5 2 -8 9 -4 14 11 19 -3 8 -32 -23z"/>
<path d="M1734 1925 c1 -17 8 -20 56 -21 l55 0 -52 3 c-38 3 -53 8 -56 21 -3 12 -4 11 -3 -3z"/>
<path d="M2771 1931 c-6 -10 -7 -21 -4 -25 9 -9 101 -8 106 2 3 4 -20 5 -50 4 -53 -4 -54 -3 -44 17 7 12 9 21 7 21 -3 0 -10 -8 -15 -19z"/>
<path d="M694 1923 c15 -18 28 -23 65 -21 l46 1 -45 4 c-25 3 -54 12 -65 21 -20 17 -20 17 -1 -5z"/>
<path d="M2247 1927 c-9 -23 8 -29 69 -24 l49 3 -52 2 c-40 2 -52 6 -55 20 -3 16 -4 16 -11 -1z"/>
<path d="M2597 1933 c-4 -3 -7 -12 -7 -20 0 -9 16 -13 55 -13 46 0 56 3 65 23 10 20 10 20 -3 4 -18 -22 -111 -22 -103 0 6 14 3 17 -7 6z"/>
<path d="M1670 1919 c0 -7 -20 -10 -54 -7 -30 1 -52 0 -49 -4 2 -5 29 -8 59 -8 41 0 54 4 54 15 0 8 -2 15 -5 15 -3 0 -5 -5 -5 -11z"/>
<path d="M2530 1922 c0 -7 -17 -13 -37 -14 l-38 -1 34 -4 c33 -4 61 10 48 24 -4 3 -7 1 -7 -5z"/>
<path d="M920 1910 l-55 -7 58 -1 c32 -1 57 2 57 8 0 6 -1 9 -2 8 -2 -1 -28 -4 -58 -8z"/>
<path d="M1960 1910 l-55 -7 58 -1 c32 -1 57 2 57 8 0 6 -1 9 -2 8 -2 -1 -28 -4 -58 -8z"/>
<path d="M570 1874 c0 -6 9 -19 19 -28 14 -13 21 -14 27 -5 4 7 3 10 -4 5 -6 -3 -18 4 -26 16 -9 12 -16 18 -16 12z"/>
<path d="M707 1853 c-4 -7 -3 -14 3 -18 6 -4 8 -11 5 -16 -3 -5 1 -6 10 -2 9 3 12 9 7 12 -5 3 -11 13 -14 21 -3 10 -6 11 -11 3z"/>
<path d="M3107 1815 c-15 -14 -24 -25 -19 -25 5 0 19 11 32 25 30 32 23 32 -13 0z"/>
<path d="M725 1688 c-3 -7 -4 -326 -3 -708 l3 -695 535 0 535 0 -532 2 -533 3 0 700 0 700 1135 0 1135 0 0 -700 0 -700 -507 -3 -508 -2 513 -3 512 -2 0 710 0 710 -1140 0 c-903 0 -1142 -3 -1145 -12z"/>
<path d="M1200 1570 c-23 -44 -6 -90 35 -90 19 -1 19 -1 2 -15 -15 -10 -17 -21 -12 -45 4 -17 13 -34 21 -37 8 -3 14 -19 14 -41 0 -19 7 -43 15 -52 8 -9 16 -30 17 -46 2 -33 26 -67 40 -58 6 4 5 -3 -1 -14 -17 -32 -14 -75 5 -68 8 3 13 2 9 -3 -3 -5 0 -11 6 -13 6 -2 12 -19 13 -38 5 -52 5 -53 22 -46 8 3 12 2 9 -4 -3 -6 2 -10 12 -10 10 0 14 -4 8 -8 -15 -10 -12 -57 3 -54 6 1 11 -3 10 -10 -2 -6 6 -14 17 -16 11 -2 25 -8 30 -14 7 -6 4 -7 -6 -3 -12 5 -16 0 -15 -22 1 -21 10 -33 41 -50 22 -12 34 -23 28 -23 -19 0 -16 -25 5 -41 16 -13 16 -13 2 6 -14 19 -14 19 3 6 9 -7 21 -28 25 -45 5 -17 13 -31 18 -31 14 0 45 -31 38 -38 -10 -9 21 -47 34 -42 7 3 10 0 7 -5 -3 -6 0 -10 7 -10 7 0 19 -9 26 -21 9 -13 19 -18 32 -14 10 3 21 1 25 -4 3 -7 0 -8 -9 -5 -9 3 -16 1 -16 -5 0 -17 42 -61 52 -55 5 3 7 2 6 -3 -2 -4 1 -9 6 -10 5 -1 12 -7 16 -13 5 -8 42 -14 101 -16 52 -2 108 -6 124 -9 63 -12 282 -25 320 -20 51 7 109 41 99 58 -4 6 -4 9 1 5 11 -10 46 32 38 45 -3 5 -1 7 4 4 13 -8 23 15 30 71 4 34 0 50 -18 77 -26 37 -39 44 -39 20 0 -8 -8 -15 -18 -15 -10 0 -23 -5 -29 -11 -7 -7 -9 -2 -6 18 5 27 5 27 -11 8 l-15 -20 -1 20 c-1 19 -1 19 -14 2 -11 -14 -15 -15 -20 -5 -5 11 -7 11 -12 0 -5 -10 -9 -10 -20 -1 -10 8 -14 8 -14 0 0 -6 -5 -11 -11 -11 -5 0 -7 6 -3 13 4 6 -3 3 -15 -7 -22 -20 -22 -20 -15 0 7 16 6 17 -8 6 -13 -10 -17 -10 -21 0 -3 8 -6 5 -7 -7 -1 -20 -1 -20 -15 -1 -8 11 -15 15 -15 10 0 -6 -32 -7 -92 -1 -51 5 -105 10 -120 10 -15 1 -24 5 -22 9 3 4 -2 8 -10 8 -19 0 -29 31 -18 61 5 13 7 31 5 39 -4 13 -3 13 6 0 9 -13 15 -8 13 11 -1 4 37 6 83 5 47 0 85 1 85 4 0 3 9 11 20 18 14 8 19 9 18 1 -2 -6 3 -14 11 -17 8 -3 11 0 7 7 -4 6 -2 11 3 11 6 0 11 -7 11 -15 0 -8 5 -15 11 -15 5 0 7 5 4 10 -3 6 -1 10 4 10 6 0 11 -5 11 -11 0 -5 5 -7 11 -4 6 4 8 14 5 22 -3 8 -1 11 5 8 5 -4 17 -1 26 7 9 7 14 8 11 3 -4 -6 -3 -17 3 -25 7 -12 9 -12 9 4 0 13 5 16 16 12 9 -4 23 -1 30 5 10 8 18 9 27 0 8 -6 18 -7 22 -3 5 4 4 1 0 -7 -6 -11 -4 -13 8 -8 10 4 17 1 17 -6 0 -8 4 -6 10 3 5 8 10 11 10 6 0 -5 6 -4 13 2 20 17 21 99 2 128 -13 20 -23 24 -68 24 -28 -1 -99 -8 -157 -16 -92 -13 -192 -17 -269 -10 -23 2 -23 3 -23 137 1 163 1 157 10 143 15 -21 82 -65 91 -60 5 3 11 1 13 -6 3 -9 12 -8 32 6 16 10 25 13 22 7 -14 -22 23 1 38 24 22 34 21 52 -2 32 -20 -18 -67 -24 -57 -7 4 6 11 8 16 5 5 -4 9 -1 9 5 0 6 5 8 12 4 6 -4 8 -3 4 4 -3 6 -2 13 4 17 5 3 10 12 10 18 -1 7 -9 3 -18 -9 -13 -16 -28 -21 -57 -20 -22 1 -44 0 -50 -3 -17 -9 -35 -10 -30 -1 6 9 -13 24 -30 25 -5 0 -9 9 -7 19 2 10 -1 15 -6 12 -13 -8 -4 56 10 69 8 7 9 6 3 -4 -6 -11 -4 -13 8 -8 12 4 17 1 17 -9 0 -10 6 -14 15 -10 8 3 15 1 15 -5 0 -6 7 -8 16 -5 8 3 13 2 10 -3 -6 -10 61 -31 86 -28 10 2 30 14 45 28 20 17 23 19 13 4 -14 -19 -14 -19 3 -6 28 22 38 47 28 73 l-8 23 -9 -25 c-4 -14 -7 -29 -6 -33 1 -5 -2 -6 -8 -2 -5 3 -18 1 -29 -4 -16 -9 -19 -8 -17 7 2 9 8 17 15 17 15 0 31 25 31 49 0 16 -5 14 -28 -12 -16 -18 -32 -29 -37 -24 -4 4 -4 1 0 -7 6 -11 4 -13 -7 -8 -9 3 -20 1 -26 -5 -7 -7 -10 -3 -8 16 2 14 0 26 -4 26 -15 0 -32 -30 -26 -45 5 -13 2 -13 -19 1 -13 9 -29 13 -34 10 -5 -4 -13 -1 -17 5 -4 8 -3 9 4 5 23 -14 12 13 -13 32 -21 17 -25 28 -25 76 l0 57 -360 -1 c-340 -2 -361 -3 -370 -20z m665 -1020 c-3 -4 7 -11 23 -15 27 -7 27 -7 5 -16 -13 -4 -23 -13 -23 -19 0 -8 7 -7 23 0 20 10 20 10 5 -3 -12 -9 -14 -17 -8 -25 7 -9 7 -9 -2 -2 -7 6 -23 10 -36 10 -20 0 -23 4 -21 33 3 36 17 60 30 51 5 -3 7 -9 4 -14z"/>
<path d="M649 188 c13 -17 51 -18 585 -16 l571 3 -569 2 c-435 3 -573 6 -585 16 -14 11 -14 10 -2 -5z"/>
<path d="M2208 173 c161 -2 422 -2 580 0 158 1 26 2 -293 2 -319 0 -448 -1 -287 -2z"/>
</g>
<g id="layer104" fill="#238d23" stroke="none">
<path d="M1200 1570 c-23 -44 -6 -90 35 -90 19 -1 19 -1 2 -15 -15 -10 -17 -21 -12 -45 4 -17 13 -34 21 -37 8 -3 14 -19 14 -41 0 -19 7 -43 15 -52 8 -9 16 -30 17 -46 2 -33 26 -67 40 -58 6 4 5 -3 -1 -14 -17 -32 -14 -75 5 -68 8 3 13 2 9 -3 -3 -5 0 -11 6 -13 6 -2 12 -19 13 -38 5 -52 5 -53 22 -46 8 3 12 2 9 -4 -3 -6 2 -10 12 -10 10 0 14 -4 8 -8 -15 -10 -12 -57 3 -54 6 1 11 -3 10 -10 -2 -6 6 -14 17 -16 11 -2 25 -8 30 -14 7 -6 4 -7 -6 -3 -12 5 -16 0 -15 -22 1 -21 10 -33 41 -50 22 -12 34 -23 28 -23 -19 0 -16 -25 5 -41 16 -13 16 -13 2 6 -14 19 -14 19 3 6 9 -7 21 -28 25 -45 5 -17 13 -31 18 -31 14 0 45 -31 38 -38 -10 -9 21 -47 34 -42 7 3 10 0 7 -5 -3 -6 0 -10 7 -10 7 0 19 -9 26 -21 9 -13 19 -18 32 -14 10 3 21 1 25 -4 3 -7 0 -8 -9 -5 -9 3 -16 1 -16 -5 0 -17 42 -61 52 -55 5 3 7 2 6 -3 -2 -4 1 -9 6 -10 5 -1 12 -7 16 -13 5 -8 42 -14 101 -16 52 -2 108 -6 124 -9 63 -12 282 -25 320 -20 51 7 109 41 99 58 -4 6 -4 9 1 5 11 -10 46 32 38 45 -3 5 -1 7 4 4 13 -8 23 15 30 71 4 34 0 50 -18 77 -26 37 -39 44 -39 20 0 -8 -8 -15 -18 -15 -10 0 -23 -5 -29 -11 -7 -7 -9 -2 -6 18 5 27 5 27 -11 8 l-15 -20 -1 20 c-1 19 -1 19 -14 2 -11 -14 -15 -15 -20 -5 -5 11 -7 11 -12 0 -5 -10 -9 -10 -20 -1 -10 8 -14 8 -14 0 0 -6 -5 -11 -11 -11 -5 0 -7 6 -3 13 4 6 -3 3 -15 -7 -22 -20 -22 -20 -15 0 7 16 6 17 -8 6 -13 -10 -17 -10 -21 0 -3 8 -6 5 -7 -7 -1 -20 -1 -20 -15 -1 -8 11 -15 15 -15 10 0 -6 -32 -7 -92 -1 -51 5 -105 10 -120 10 -15 1 -24 5 -22 9 3 4 -2 8 -10 8 -19 0 -29 31 -18 61 5 13 7 31 5 39 -4 13 -3 13 6 0 9 -13 15 -8 13 11 -1 4 37 6 83 5 47 0 85 1 85 4 0 3 9 11 20 18 14 8 19 9 18 1 -2 -6 3 -14 11 -17 8 -3 11 0 7 7 -4 6 -2 11 3 11 6 0 11 -7 11 -15 0 -8 5 -15 11 -15 5 0 7 5 4 10 -3 6 -1 10 4 10 6 0 11 -5 11 -11 0 -5 5 -7 11 -4 6 4 8 14 5 22 -3 8 -1 11 5 8 5 -4 17 -1 26 7 9 7 14 8 11 3 -4 -6 -3 -17 3 -25 7 -12 9 -12 9 4 0 13 5 16 16 12 9 -4 23 -1 30 5 10 8 18 9 27 0 8 -6 18 -7 22 -3 5 4 4 1 0 -7 -6 -11 -4 -13 8 -8 10 4 17 1 17 -6 0 -8 4 -6 10 3 5 8 10 11 10 6 0 -5 6 -4 13 2 20 17 21 99 2 128 -13 20 -23 24 -68 24 -28 -1 -99 -8 -157 -16 -92 -13 -192 -17 -269 -10 -23 2 -23 3 -23 137 1 163 1 157 10 143 15 -21 82 -65 91 -60 5 3 11 1 13 -6 3 -9 12 -8 32 6 16 10 25 13 22 7 -15 -23 23 2 39 26 18 26 12 44 -7 25 -15 -15 -62 -16 -53 -2 4 6 11 8 16 5 5 -4 9 -1 9 5 0 6 6 8 13 4 6 -4 9 -4 5 1 -4 4 -3 17 3 29 l10 21 -18 -21 c-14 -15 -29 -21 -58 -20 -22 1 -44 0 -50 -3 -17 -9 -35 -10 -30 -1 6 9 -13 24 -30 25 -5 0 -9 9 -7 19 2 10 -1 15 -6 12 -13 -8 -4 56 10 69 8 7 9 6 3 -4 -6 -11 -4 -13 8 -8 12 4 17 1 17 -9 0 -10 6 -14 15 -10 8 3 15 1 15 -5 0 -6 7 -8 16 -5 8 3 13 2 10 -3 -6 -10 61 -31 86 -28 10 2 30 14 45 28 20 17 23 19 13 4 -14 -19 -14 -19 3 -6 28 22 38 47 28 73 l-8 23 -9 -25 c-4 -14 -7 -29 -6 -33 1 -5 -2 -6 -8 -2 -5 3 -18 1 -29 -4 -16 -9 -19 -8 -17 7 2 9 8 17 14 17 16 0 24 12 28 41 l2 26 -27 -31 c-15 -17 -31 -28 -36 -23 -4 4 -4 1 0 -7 6 -11 4 -13 -7 -8 -9 3 -20 1 -26 -5 -7 -7 -10 -3 -8 16 2 14 0 26 -4 26 -15 0 -32 -30 -26 -45 5 -13 2 -13 -19 1 -13 9 -29 13 -34 10 -5 -4 -13 -1 -17 5 -4 8 -3 9 4 5 23 -14 12 13 -13 32 -21 17 -25 28 -25 76 l0 57 -360 -1 c-340 -2 -361 -3 -370 -20z m662 -1017 c0 -4 12 -13 27 -20 16 -7 20 -12 10 -12 -9 -1 -19 -8 -23 -16 -5 -13 -2 -14 17 -5 20 10 20 10 5 -3 -12 -9 -14 -17 -8 -25 7 -9 7 -9 -2 -2 -7 6 -23 10 -36 10 -20 0 -23 4 -21 33 4 42 29 76 31 40z"/>
<path d="M2000 1305 c-20 -24 -6 -28 15 -5 10 11 13 20 8 20 -6 0 -16 -7 -23 -15z"/>
</g>
<g id="layer105" fill="#707170" stroke="none">
<path d="M1858 2403 c12 -2 32 -2 45 0 12 2 2 4 -23 4 -25 0 -35 -2 -22 -4z"/>
<path d="M820 2302 c0 -4 17 -6 38 -4 64 6 69 10 15 11 -29 0 -53 -3 -53 -7z"/>
<path d="M1040 2303 c0 -5 24 -7 52 -5 89 5 97 9 21 11 -40 0 -73 -2 -73 -6z"/>
<path d="M2578 2303 c18 -2 45 -2 60 0 15 2 0 4 -33 4 -33 0 -45 -2 -27 -4z"/>
<path d="M2767 2303 c-3 -5 28 -8 69 -8 41 0 74 3 74 8 0 4 -31 7 -69 7 -39 0 -72 -3 -74 -7z"/>
<path d="M3013 2303 c20 -2 54 -2 75 0 20 2 3 4 -38 4 -41 0 -58 -2 -37 -4z"/>
<path d="M1135 2233 c38 -2 73 -9 78 -16 6 -8 7 -8 4 3 -3 12 -21 15 -78 16 l-74 1 70 -4z"/>
<path d="M3223 2233 c9 -2 25 -2 35 0 9 3 1 5 -18 5 -19 0 -27 -2 -17 -5z"/>
<path d="M280 2195 c14 -16 26 -32 28 -34 1 -2 4 -2 7 1 3 2 -10 18 -28 34 l-32 29 25 -30z"/>
<path d="M2505 2160 c-4 -6 -4 -14 -1 -17 3 -4 6 -1 6 5 0 15 116 16 123 2 3 -6 4 -5 3 2 -3 17 -121 24 -131 8z"/>
<path d="M639 1988 c9 -13 28 -18 62 -18 27 0 49 3 49 8 0 4 -20 6 -45 4 -28 -3 -52 1 -63 9 -15 13 -16 12 -3 -3z"/>
<path d="M1070 1980 l-45 -7 48 -1 c26 -1 47 3 47 8 0 6 -1 9 -2 8 -2 0 -23 -4 -48 -8z"/>
<path d="M1425 1980 l-60 -7 63 -1 c36 -1 62 2 62 8 0 6 -1 9 -2 8 -2 -1 -30 -4 -63 -8z"/>
<path d="M1605 1980 l-60 -7 57 -1 c31 -1 60 3 63 8 3 6 5 9 3 8 -2 -1 -30 -4 -63 -8z"/>
<path d="M1965 1980 l-60 -7 57 -1 c31 -1 60 3 63 8 3 6 5 9 3 8 -2 -1 -30 -4 -63 -8z"/>
<path d="M2087 1978 c2 -5 28 -8 58 -8 30 0 56 3 58 8 3 4 -23 7 -58 7 -35 0 -61 -3 -58 -7z"/>
<path d="M2325 1980 l-60 -7 57 -1 c31 -1 60 3 63 8 3 6 5 9 3 8 -2 -1 -30 -4 -63 -8z"/>
<path d="M2505 1980 l-60 -7 57 -1 c31 -1 60 3 63 8 3 6 5 9 3 8 -2 -1 -30 -4 -63 -8z"/>
<path d="M2685 1980 l-60 -7 57 -1 c31 -1 60 3 63 8 3 6 5 9 3 8 -2 -1 -30 -4 -63 -8z"/>
<path d="M1208 1973 c17 -2 47 -2 65 0 17 2 3 4 -33 4 -36 0 -50 -2 -32 -4z"/>
<path d="M2838 1973 c18 -2 45 -2 60 0 15 2 0 4 -33 4 -33 0 -45 -2 -27 -4z"/>
<path d="M3003 1973 c15 -2 39 -2 55 0 15 2 2 4 -28 4 -30 0 -43 -2 -27 -4z"/>
<path d="M1145 1921 c6 -10 -7 -12 -53 -9 -33 1 -58 0 -55 -4 2 -5 28 -8 58 -8 53 0 77 12 54 26 -8 5 -9 3 -4 -5z"/>
<path d="M1733 1920 c3 -11 19 -15 63 -16 l59 -1 -55 4 c-30 2 -58 10 -63 16 -6 8 -7 7 -4 -3z"/>
<path d="M2645 1910 l-60 -7 57 -1 c31 -1 60 3 63 8 3 6 5 9 3 8 -2 -1 -30 -4 -63 -8z"/>
<path d="M733 1903 c15 -2 37 -2 50 0 12 2 0 4 -28 4 -27 0 -38 -2 -22 -4z"/>
<path d="M898 1903 c18 -2 45 -2 60 0 15 2 0 4 -33 4 -33 0 -45 -2 -27 -4z"/>
<path d="M725 1688 c-3 -7 -4 -326 -3 -708 l3 -695 3 702 c1 550 5 702 15 706 9 4 9 6 -1 6 -7 1 -15 -5 -17 -11z"/>
<path d="M1313 1693 c306 -2 808 -2 1115 0 306 1 55 2 -558 2 -613 0 -864 -1 -557 -2z"/>
</g>
<g id="layer106" fill="#b0b0b0" stroke="none">
<path d="M455 2305 c23 -8 83 -10 79 -3 -3 4 -24 8 -47 7 -23 0 -37 -2 -32 -4z"/>
<path d="M853 2303 c15 -2 37 -2 50 0 12 2 0 4 -28 4 -27 0 -38 -2 -22 -4z"/>
<path d="M1067 2303 c18 -2 50 -2 70 0 21 2 7 4 -32 4 -38 0 -55 -2 -38 -4z"/>
<path d="M2843 2303 c15 -2 37 -2 50 0 12 2 0 4 -28 4 -27 0 -38 -2 -22 -4z"/>
<path d="M3028 2303 c17 -2 47 -2 65 0 17 2 3 4 -33 4 -36 0 -50 -2 -32 -4z"/>
<path d="M3218 2303 c12 -2 32 -2 45 0 12 2 2 4 -23 4 -25 0 -35 -2 -22 -4z"/>
<path d="M533 2163 c15 -2 39 -2 55 0 15 2 2 4 -28 4 -30 0 -43 -2 -27 -4z"/>
<path d="M728 2163 c17 -2 47 -2 65 0 17 2 3 4 -33 4 -36 0 -50 -2 -32 -4z"/>
<path d="M1127 2163 c18 -2 50 -2 70 0 21 2 7 4 -32 4 -38 0 -55 -2 -38 -4z"/>
<path d="M2337 2163 c18 -2 50 -2 70 0 21 2 7 4 -32 4 -38 0 -55 -2 -38 -4z"/>
<path d="M2507 2163 c-3 -5 16 -7 41 -5 80 5 90 9 25 11 -34 0 -64 -2 -66 -6z"/>
<path d="M2743 2163 c15 -2 39 -2 55 0 15 2 2 4 -28 4 -30 0 -43 -2 -27 -4z"/>
<path d="M2948 2163 c12 -2 32 -2 45 0 12 2 2 4 -23 4 -25 0 -35 -2 -22 -4z"/>
<path d="M1013 2043 c9 -2 25 -2 35 0 9 3 1 5 -18 5 -19 0 -27 -2 -17 -5z"/>
<path d="M1378 2043 c12 -2 32 -2 45 0 12 2 2 4 -23 4 -25 0 -35 -2 -22 -4z"/>
<path d="M1778 2043 c12 -2 32 -2 45 0 12 2 2 4 -23 4 -25 0 -35 -2 -22 -4z"/>
<path d="M2148 2043 c12 -2 32 -2 45 0 12 2 2 4 -23 4 -25 0 -35 -2 -22 -4z"/>
<path d="M2338 2043 c12 -2 32 -2 45 0 12 2 2 4 -23 4 -25 0 -35 -2 -22 -4z"/>
<path d="M2493 2043 c9 -2 25 -2 35 0 9 3 1 5 -18 5 -19 0 -27 -2 -17 -5z"/>
<path d="M2089 1977 c4 -5 32 -7 62 -5 l54 3 -62 5 c-34 3 -58 1 -54 -3z"/>
<path d="M1213 1973 c15 -2 39 -2 55 0 15 2 2 4 -28 4 -30 0 -43 -2 -27 -4z"/>
<path d="M1393 1973 c15 -2 39 -2 55 0 15 2 2 4 -28 4 -30 0 -43 -2 -27 -4z"/>
<path d="M1563 1973 c9 -2 25 -2 35 0 9 3 1 5 -18 5 -19 0 -27 -2 -17 -5z"/>
<path d="M1758 1973 c18 -2 45 -2 60 0 15 2 0 4 -33 4 -33 0 -45 -2 -27 -4z"/>
<path d="M1938 1973 c18 -2 45 -2 60 0 15 2 0 4 -33 4 -33 0 -45 -2 -27 -4z"/>
<path d="M2303 1973 c15 -2 39 -2 55 0 15 2 2 4 -28 4 -30 0 -43 -2 -27 -4z"/>
<path d="M2663 1973 c15 -2 39 -2 55 0 15 2 2 4 -28 4 -30 0 -43 -2 -27 -4z"/>
<path d="M2843 1973 c15 -2 39 -2 55 0 15 2 2 4 -28 4 -30 0 -43 -2 -27 -4z"/>
<path d="M1037 1908 c2 -5 28 -8 58 -8 30 0 56 3 58 8 3 4 -23 7 -58 7 -35 0 -61 -3 -58 -7z"/>
<path d="M1445 1910 l-60 -7 57 -1 c31 -1 60 3 63 8 3 6 5 9 3 8 -2 -1 -30 -4 -63 -8z"/>
<path d="M2249 1907 c4 -5 32 -7 62 -5 l54 3 -62 5 c-34 3 -58 1 -54 -3z"/>
<path d="M2495 1910 l-40 -7 37 -2 c20 0 40 4 43 9 3 6 5 9 3 9 -2 -1 -21 -5 -43 -9z"/>
<path d="M728 1903 c12 -2 30 -2 40 0 9 3 -1 5 -23 4 -22 0 -30 -2 -17 -4z"/>
<path d="M903 1903 c15 -2 37 -2 50 0 12 2 0 4 -28 4 -27 0 -38 -2 -22 -4z"/>
<path d="M1253 1903 c15 -2 39 -2 55 0 15 2 2 4 -28 4 -30 0 -43 -2 -27 -4z"/>
<path d="M1598 1903 c18 -2 45 -2 60 0 15 2 0 4 -33 4 -33 0 -45 -2 -27 -4z"/>
<path d="M1768 1903 c18 -2 45 -2 60 0 15 2 0 4 -33 4 -33 0 -45 -2 -27 -4z"/>
<path d="M1938 1903 c18 -2 45 -2 60 0 15 2 0 4 -33 4 -33 0 -45 -2 -27 -4z"/>
<path d="M2108 1903 c18 -2 45 -2 60 0 15 2 0 4 -33 4 -33 0 -45 -2 -27 -4z"/>
<path d="M2618 1903 c18 -2 45 -2 60 0 15 2 0 4 -33 4 -33 0 -45 -2 -27 -4z"/>
<path d="M2793 1903 c15 -2 39 -2 55 0 15 2 2 4 -28 4 -30 0 -43 -2 -27 -4z"/>
<path d="M725 1688 c-3 -7 -4 -326 -3 -708 l3 -695 5 708 c3 389 4 707 2 707 -1 0 -5 -6 -7 -12z"/>
<path d="M3000 992 l5 -707 3 699 c1 385 -1 703 -5 707 -5 5 -6 -310 -3 -699z"/>
</g>
<g id="layer107" fill="#f9f9f9" stroke="none">
<path d="M1844 246 c-9 -24 4 -48 23 -44 12 2 18 12 18 28 0 29 -32 41 -41 16z"/>
</g>


</svg>