<!DOCTYPE svg PUBLIC "-//W3C//DTD SVG 20010904//EN" "http://www.w3.org/TR/2001/REC-SVG-20010904/DTD/svg10.dtd">
<svg version="1.0" xmlns="http://www.w3.org/2000/svg" width="388px" height="71px" viewBox="0 0 3880 710" preserveAspectRatio="xMidYMid meet">
<g id="layer101" fill="#020502" stroke="none">
<path d="M2405 661 c-10 -9 -83 -22 -120 -21 -11 0 -53 2 -92 4 -48 2 -71 0 -66 -7 4 -7 -2 -7 -18 -2 -42 14 -290 18 -314 5 -17 -9 -28 -9 -43 -1 -26 14 -266 15 -292 1 -13 -7 -21 -7 -25 0 -9 15 -118 12 -141 -4 -17 -12 -22 -12 -39 0 -22 16 -116 19 -132 3 -7 -7 -22 -7 -49 1 -25 7 -85 10 -164 7 -69 -3 -134 -5 -145 -4 -16 1 -181 0 -237 -1 -7 0 -73 2 -147 5 -153 5 -184 -3 -200 -49 -17 -50 -14 -428 4 -469 8 -19 14 -30 15 -24 0 5 5 4 12 -3 7 -7 37 -12 68 -12 43 0 61 5 78 20 21 20 22 29 22 175 l0 155 64 0 c35 0 71 3 80 6 14 5 16 -5 16 -76 0 -70 -2 -81 -16 -76 -8 3 -13 2 -10 -3 3 -4 -1 -17 -9 -27 -8 -11 -14 -42 -15 -75 0 -46 4 -59 25 -79 13 -12 21 -28 18 -34 -4 -6 0 -5 9 2 11 9 46 13 105 12 48 -1 98 2 111 6 12 3 22 2 22 -2 0 -9 244 -7 270 2 8 3 17 5 20 5 3 1 11 6 19 12 12 10 14 9 9 -4 -6 -14 10 -16 144 -18 88 -1 154 2 162 8 12 11 41 9 52 -2 13 -13 283 -8 304 5 15 10 22 10 32 0 15 -15 264 -17 304 -2 19 8 30 8 38 0 15 -15 289 -13 304 2 8 8 15 9 20 3 14 -20 125 -24 147 -5 12 10 19 10 27 2 15 -15 113 -16 139 -1 15 7 24 7 34 -1 17 -14 269 -14 295 0 13 7 21 7 25 0 9 -14 218 -13 232 1 8 8 13 8 17 0 8 -12 272 -16 301 -5 39 15 45 54 45 274 0 228 -6 261 -52 274 -38 10 -268 7 -288 -4 -12 -7 -21 -7 -25 0 -7 12 -339 12 -371 0 -13 -5 -39 -4 -65 4 -36 11 -52 11 -88 0 -29 -8 -50 -10 -62 -3 -25 13 -263 11 -292 -2 -27 -12 -73 4 -62 22 8 11 2 12 -10 0z m728 -216 c4 -8 2 -17 -3 -20 -6 -4 -10 -4 -10 -1 0 2 -3 11 -6 20 -3 9 -2 16 4 16 5 0 12 -7 15 -15z m4 -132 c-2 -16 -4 -5 -4 22 0 28 2 40 4 28 2 -13 2 -35 0 -50z"/>
</g>
<g id="layer102" fill="#2e862b" stroke="none">
<path d="M250 370 l0 -200 30 0 30 0 0 175 0 175 85 0 c84 0 85 0 85 25 l0 25 -115 0 -115 0 0 -200z"/>
<path d="M570 545 c0 -20 5 -25 25 -25 l25 0 0 -150 0 -150 -25 0 c-20 0 -25 -5 -25 -25 0 -24 2 -25 75 -25 73 0 75 1 75 25 0 20 -5 25 -25 25 l-25 0 0 150 0 150 25 0 c20 0 25 5 25 25 0 24 -2 25 -75 25 -73 0 -75 -1 -75 -25z"/>
<path d="M820 370 l0 -200 95 0 95 0 0 80 c0 64 3 80 15 80 13 0 15 20 15 120 l0 120 -110 0 -110 0 0 -200z m167 100 c5 -83 0 -90 -62 -90 l-55 0 0 70 0 71 57 -3 57 -3 3 -45z m-27 -195 l0 -55 -45 0 -45 0 0 55 0 55 45 0 45 0 0 -55z"/>
<path d="M1160 370 l0 -201 103 3 102 3 0 105 0 105 -27 3 c-16 2 -28 5 -28 7 0 3 21 43 46 90 l45 85 -33 0 c-37 0 -42 -6 -107 -132 -38 -74 -51 -64 -51 42 0 89 0 90 -25 90 l-25 0 0 -200z m150 -90 l0 -60 -50 0 -50 0 0 60 0 60 50 0 50 0 0 -60z"/>
<path d="M1499 393 c0 -98 -2 -188 -5 -200 -4 -23 -3 -23 111 -23 l115 0 0 200 0 200 -110 0 -110 0 -1 -177z m161 -23 l0 -150 -55 0 -55 0 0 150 0 150 55 0 55 0 0 -150z"/>
<path d="M1834 556 c-3 -7 -4 -33 -2 -57 3 -39 6 -44 28 -44 21 0 26 5 28 33 3 32 4 32 58 32 l54 0 0 -34 c0 -31 -5 -37 -82 -83 l-83 -49 0 -89 0 -90 110 -3 110 -3 -1 43 c-1 24 -2 49 -3 56 -1 6 -12 12 -26 12 -21 0 -25 -5 -25 -30 0 -30 -1 -30 -55 -30 l-55 0 0 43 0 42 79 45 c87 49 89 52 87 160 l-1 55 -108 3 c-85 2 -108 0 -113 -12z"/>
<path d="M2170 370 l0 -200 113 0 113 0 1 200 0 200 -28 0 -29 0 0 -90 0 -90 -55 0 -55 0 0 90 0 90 -30 0 -30 0 0 -200z m170 -90 l0 -60 -55 0 -55 0 0 60 0 60 55 0 55 0 0 -60z"/>
<path d="M2510 369 l0 -200 27 3 26 3 -1 173 -1 172 59 0 60 0 0 -175 0 -175 25 0 25 0 0 200 0 200 -110 0 -110 0 0 -201z"/>
<path d="M2848 370 l3 -200 104 0 105 0 0 110 0 110 -30 0 c-16 0 -30 3 -30 7 0 3 20 41 45 84 25 43 45 81 45 84 0 3 -15 5 -34 5 -33 0 -36 -4 -83 -90 -26 -49 -53 -90 -60 -90 -10 0 -13 24 -13 90 l0 90 -27 0 -28 0 3 -200z m152 -90 l0 -60 -50 0 -50 0 0 60 0 60 50 0 50 0 0 -60z"/>
<path d="M3170 546 c0 -18 6 -25 23 -28 21 -3 22 -7 25 -126 4 -151 0 -172 -33 -172 -20 0 -25 -5 -25 -25 0 -25 1 -25 80 -25 79 0 80 0 80 25 0 20 -5 25 -25 25 l-25 0 0 150 0 150 25 0 c20 0 25 5 25 25 0 24 -2 25 -75 25 -73 0 -75 -1 -75 -24z"/>
<path d="M3420 568 c-1 -2 -1 -91 -2 -198 l-1 -195 112 -3 111 -3 0 201 0 200 -110 0 c-60 0 -110 -1 -110 -2z m160 -198 l0 -150 -55 0 -55 0 0 150 0 150 55 0 55 0 0 -150z"/>
</g>
<g id="layer103" fill="#496c48" stroke="none">
<path d="M2405 661 c-6 -5 -28 -11 -50 -14 l-40 -4 47 -1 c26 -1 59 -7 73 -14 20 -9 28 -9 38 1 9 10 8 11 -5 6 -20 -8 -61 12 -53 26 8 12 2 12 -10 0z"/>
<path d="M215 638 c-21 -12 -35 -28 -35 -40 0 -4 11 4 25 18 25 25 27 25 169 22 79 -2 139 0 133 4 -19 12 -270 9 -292 -4z"/>
<path d="M543 642 c-6 -4 26 -6 70 -4 126 4 142 9 37 10 -52 1 -100 -2 -107 -6z"/>
<path d="M1127 643 c-3 -5 19 -6 50 -5 41 3 59 0 74 -14 19 -17 20 -17 37 1 10 12 11 15 2 8 -11 -9 -20 -8 -34 3 -21 15 -121 20 -129 7z"/>
<path d="M1463 642 c-6 -4 50 -6 124 -4 91 3 145 0 165 -9 22 -9 32 -9 41 0 7 7 61 12 147 13 l135 2 -130 4 c-84 2 -138 -1 -151 -9 -16 -8 -27 -8 -42 0 -23 12 -270 15 -289 3z"/>
<path d="M2620 643 c69 -2 135 -8 146 -14 15 -8 27 -8 40 -1 22 13 23 12 -171 16 -79 1 -85 1 -15 -1z"/>
<path d="M3005 645 c22 -8 134 -11 123 -3 -7 4 -40 7 -73 7 -33 0 -55 -2 -50 -4z"/>
<path d="M3383 642 c-6 -4 54 -6 133 -4 142 3 144 3 169 -22 l25 -25 2 -223 3 -223 2 215 c4 232 -2 265 -44 281 -29 11 -273 12 -290 1z"/>
<path d="M2268 627 c14 -6 26 -7 32 -1 5 5 -4 9 -23 10 -30 1 -30 1 -9 -9z"/>
<path d="M2930 634 c0 -2 9 -8 19 -13 14 -8 22 -7 30 3 8 10 4 13 -19 13 -17 0 -30 -2 -30 -3z"/>
<path d="M172 374 c-2 -167 1 -219 13 -245 8 -19 14 -30 15 -25 0 6 5 5 12 -2 13 -13 124 -17 131 -5 3 5 -23 7 -57 5 -100 -6 -100 -6 -106 262 l-6 221 -2 -211z"/>
<path d="M495 449 c-16 -7 -13 -8 13 -4 l32 5 0 -81 c0 -69 -2 -80 -16 -75 -8 3 -13 2 -10 -3 3 -4 -1 -17 -9 -27 -8 -11 -14 -42 -15 -75 0 -46 4 -59 25 -79 13 -12 21 -28 18 -34 -4 -6 0 -5 9 2 11 9 46 13 105 12 48 -1 98 2 111 6 12 3 22 2 22 -2 0 -9 243 -8 268 1 7 2 14 3 16 2 1 -1 11 5 21 13 17 13 18 13 13 -1 -6 -14 10 -16 144 -18 88 -1 154 2 162 8 12 11 41 9 52 -2 10 -9 292 -9 297 1 3 4 -60 6 -140 4 -126 -3 -148 -1 -164 14 -18 16 -20 16 -37 1 -15 -14 -42 -17 -154 -17 -118 0 -137 2 -151 18 -10 10 -17 27 -17 38 -1 13 -5 10 -14 -12 -8 -17 -21 -34 -30 -37 -9 -4 -127 -6 -262 -6 -287 0 -284 -1 -284 93 0 46 4 58 25 75 25 18 26 24 23 103 -3 88 -10 98 -53 77z"/>
<path d="M3685 120 c-18 -20 -28 -21 -166 -18 -81 2 -145 0 -142 -4 6 -12 281 -10 302 2 10 5 21 16 25 25 7 20 3 19 -19 -5z"/>
<path d="M2099 114 c-12 -15 -12 -16 8 -10 12 4 24 2 28 -4 9 -15 288 -13 303 2 8 8 15 9 20 3 14 -20 125 -24 147 -5 12 10 19 10 27 2 7 -7 37 -11 72 -10 l61 2 -60 3 c-32 2 -65 9 -72 14 -8 7 -18 7 -32 0 -26 -14 -107 -14 -133 0 -14 8 -23 8 -31 0 -7 -7 -63 -11 -151 -11 -111 0 -143 3 -156 15 -15 14 -19 14 -31 -1z"/>
<path d="M2774 109 c-4 -8 -3 -10 5 -5 6 4 18 2 26 -4 17 -14 268 -14 295 0 13 7 21 7 25 0 7 -12 221 -14 228 -2 3 4 -44 6 -105 4 -74 -2 -114 1 -124 9 -11 9 -17 9 -28 0 -16 -14 -269 -11 -297 2 -11 5 -20 4 -25 -4z"/>
</g>
<g id="layer104" fill="#707170" stroke="none">
<path d="M1127 643 c-3 -5 19 -6 49 -5 38 3 63 -1 82 -13 l27 -16 -24 20 c-17 16 -37 21 -77 21 -29 0 -55 -3 -57 -7z"/>
<path d="M1325 644 c47 -7 113 -8 108 -1 -2 4 -32 6 -66 6 -34 -1 -53 -3 -42 -5z"/>
<path d="M1463 642 c-6 -4 39 -6 100 -4 175 4 195 8 47 10 -74 1 -140 -2 -147 -6z"/>
<path d="M1794 639 c-3 -6 -15 -8 -27 -5 -15 4 -17 2 -9 -6 9 -9 17 -9 34 0 13 7 79 13 153 15 l130 3 -137 2 c-90 1 -139 -2 -144 -9z"/>
<path d="M2125 640 c6 -10 1 -11 -21 -6 -16 4 -27 6 -24 4 3 -2 12 -9 21 -16 13 -10 19 -9 28 2 9 11 9 16 0 22 -8 5 -9 3 -4 -6z"/>
<path d="M2625 641 c77 -3 146 -10 152 -14 7 -4 21 -4 30 2 21 11 21 11 -177 15 l-145 3 140 -6z"/>
<path d="M3383 642 c-6 -4 39 -6 100 -4 175 4 195 8 47 10 -74 1 -140 -2 -147 -6z"/>
<path d="M196 624 c-9 -8 -16 -20 -16 -26 0 -6 1 -9 3 -7 1 2 11 14 21 27 22 25 16 30 -8 6z"/>
<path d="M2948 627 c15 -7 26 -7 33 0 6 6 -1 10 -23 10 -30 0 -30 -1 -10 -10z"/>
<path d="M3685 620 c10 -11 20 -20 22 -20 2 0 -1 9 -7 20 -6 11 -16 20 -22 20 -6 0 -3 -9 7 -20z"/>
<path d="M495 449 c-16 -7 -13 -8 13 -4 l32 5 0 -81 c0 -64 -3 -80 -13 -76 -8 3 -14 -1 -14 -9 0 -18 11 -18 26 0 8 9 11 43 9 92 -3 84 -11 94 -53 73z"/>
<path d="M497 253 c-4 -3 -7 -32 -7 -63 0 -47 4 -60 25 -80 13 -12 21 -28 18 -34 -4 -6 0 -5 9 2 11 9 45 12 108 11 50 -1 94 1 97 5 3 3 -43 6 -104 6 -137 0 -147 7 -141 99 1 34 3 61 2 61 0 0 -4 -3 -7 -7z"/>
<path d="M1081 149 c-1 -9 -10 -24 -20 -33 -17 -15 -38 -17 -158 -14 -93 2 -136 0 -130 -7 10 -11 251 -9 277 2 8 3 17 7 20 7 3 1 11 5 19 10 11 7 13 5 9 -6 -6 -13 14 -16 147 -17 84 -1 155 2 158 6 3 4 -58 7 -135 5 -147 -3 -161 0 -178 43 -6 14 -9 16 -9 4z"/>
<path d="M187 121 c3 -11 9 -19 13 -16 5 3 11 1 15 -5 7 -11 121 -14 128 -2 3 4 -22 5 -55 4 -51 -3 -63 -1 -83 18 -24 22 -24 22 -18 1z"/>
<path d="M3687 120 c-17 -20 -27 -21 -166 -18 -82 2 -147 0 -144 -4 5 -9 274 -11 297 -2 9 4 21 15 27 25 13 25 8 24 -14 -1z"/>
<path d="M2434 110 c-7 -7 -62 -10 -157 -8 -80 2 -143 0 -140 -4 8 -14 288 -9 301 4 8 8 15 9 20 3 14 -20 125 -24 147 -5 12 10 19 10 27 2 7 -7 37 -11 73 -10 l60 2 -60 3 c-32 2 -65 9 -72 15 -9 7 -17 7 -28 -2 -15 -12 -116 -10 -145 3 -9 4 -20 3 -26 -3z"/>
<path d="M2774 108 c-4 -7 -3 -8 5 -4 6 4 18 2 26 -4 16 -13 268 -15 291 -2 7 4 -53 6 -133 4 -95 -2 -149 0 -156 7 -14 14 -24 14 -33 -1z"/>
<path d="M1457 98 c2 -5 69 -8 148 -8 79 0 146 3 148 8 3 4 -64 7 -148 7 -84 0 -151 -3 -148 -7z"/>
<path d="M1799 97 c4 -4 70 -6 147 -5 l139 3 -147 5 c-81 3 -144 1 -139 -3z"/>
<path d="M3127 98 c6 -10 220 -10 226 0 3 4 -48 7 -113 7 -65 0 -116 -3 -113 -7z"/>
</g>
<g id="layer105" fill="#a9aaa9" stroke="none">
<path d="M2405 661 c-6 -5 -28 -11 -50 -14 -37 -3 -36 -4 11 -5 39 -2 51 1 51 13 0 18 0 18 -12 6z"/>
<path d="M2850 649 c-19 -5 -14 -7 23 -8 26 -1 47 1 47 3 0 8 -46 12 -70 5z"/>
<path d="M292 643 c37 -2 100 -2 140 0 40 1 10 3 -67 3 -77 0 -110 -1 -73 -3z"/>
<path d="M598 643 c29 -2 74 -2 100 0 26 2 2 3 -53 3 -55 0 -76 -1 -47 -3z"/>
<path d="M863 643 c37 -2 97 -2 135 0 37 2 6 3 -68 3 -74 0 -105 -1 -67 -3z"/>
<path d="M1158 643 c18 -2 45 -2 60 0 15 2 0 4 -33 4 -33 0 -45 -2 -27 -4z"/>
<path d="M1338 643 c17 -2 47 -2 65 0 17 2 3 4 -33 4 -36 0 -50 -2 -32 -4z"/>
<path d="M1532 643 c37 -2 100 -2 140 0 40 1 10 3 -67 3 -77 0 -110 -1 -73 -3z"/>
<path d="M1797 643 c-3 -5 38 -7 91 -5 172 4 190 8 50 10 -75 1 -139 -1 -141 -5z"/>
<path d="M2173 643 c15 -2 37 -2 50 0 12 2 0 4 -28 4 -27 0 -38 -2 -22 -4z"/>
<path d="M2552 643 c37 -2 100 -2 140 0 40 1 10 3 -67 3 -77 0 -110 -1 -73 -3z"/>
<path d="M3015 644 c47 -7 113 -8 108 -1 -2 4 -32 6 -66 6 -34 -1 -53 -3 -42 -5z"/>
<path d="M3180 644 c84 -8 178 -8 173 -1 -2 4 -50 6 -106 5 -56 -1 -86 -3 -67 -4z"/>
<path d="M3452 643 c37 -2 100 -2 140 0 40 1 10 3 -67 3 -77 0 -110 -1 -73 -3z"/>
<path d="M540 369 c0 -64 -3 -80 -13 -76 -8 3 -14 -1 -14 -8 0 -10 5 -11 19 -4 15 8 18 22 18 89 0 44 -2 80 -5 80 -3 0 -5 -36 -5 -81z"/>
<path d="M491 154 c0 -11 10 -31 24 -44 13 -12 21 -28 18 -34 -4 -6 1 -4 11 3 17 14 17 15 -1 22 -23 8 -39 28 -46 54 -5 19 -5 19 -6 -1z"/>
<path d="M1072 129 c-7 -11 -23 -24 -35 -29 -14 -5 -16 -9 -6 -9 8 -1 20 4 27 11 7 7 12 8 12 4 0 -5 8 -2 17 5 14 12 16 12 11 -1 -4 -11 3 -15 26 -17 26 -1 28 0 10 7 -12 5 -28 18 -36 29 -14 20 -14 20 -26 0z"/>
<path d="M772 96 c7 -7 19 -11 27 -8 11 4 10 7 -5 13 -29 12 -36 10 -22 -5z"/>
</g>
<g id="layer106" fill="#dedede" stroke="none">
<path d="M3714 370 c0 -124 2 -174 3 -112 2 61 2 163 0 225 -1 61 -3 11 -3 -113z"/>
<path d="M174 365 c0 -121 2 -169 3 -107 2 62 2 161 0 220 -1 59 -3 8 -3 -113z"/>
<path d="M1074 125 c-9 -22 1 -29 15 -11 8 10 9 16 1 21 -5 3 -13 -1 -16 -10z"/>
</g>


</svg>